<svg width="26" height="26" viewBox="0 0 26 26" fill="none" xmlns="http://www.w3.org/2000/svg">
<path d="M5.08408 5.22601C6.11464 4.17101 7.34596 3.33299 8.70548 2.76133C10.065 2.18967 11.5252 1.89595 13 1.89747C19.1176 1.89747 24.0771 6.85642 24.0771 12.974C24.0771 19.0916 19.1176 24.0511 13 24.0511C6.88241 24.0511 1.92291 19.0916 1.92291 12.974C1.92291 10.8366 2.52904 8.84055 3.5777 7.14784" stroke="black" stroke-linecap="round" stroke-linejoin="round"/>
<path d="M16.6936 12.9047C16.6936 13.2198 16.5684 13.522 16.3456 13.7448C16.1228 13.9676 15.8206 14.0928 15.5055 14.0928C15.1904 14.0928 14.8881 13.9676 14.6653 13.7448C14.4425 13.522 14.3173 13.2198 14.3173 12.9047C14.3173 12.2487 14.8492 11.7168 15.5052 11.7168C16.1612 11.7168 16.6936 12.2487 16.6936 12.9047Z" stroke="black" stroke-width="0.5" stroke-linecap="round" stroke-linejoin="round"/>
<path d="M13.3516 9.23003H19.1528C19.5521 9.22917 19.9354 9.38692 20.2184 9.66859C20.5013 9.95026 20.6609 10.3328 20.6619 10.7321V15.0708C20.6626 15.4701 20.5047 15.8533 20.2229 16.1362C19.9412 16.4191 19.5586 16.5785 19.1593 16.5794H13.3516C12.9523 16.5802 12.569 16.4225 12.286 16.1408C12.003 15.8591 11.8435 15.4766 11.8425 15.0773V10.7386C11.842 10.5408 11.8806 10.3449 11.9559 10.1621C12.0311 9.97921 12.1417 9.81297 12.2812 9.67284C12.4207 9.53271 12.5865 9.42143 12.769 9.34536C12.9516 9.26929 13.1473 9.22992 13.3451 9.22949L13.3516 9.23003Z" stroke="black" stroke-linecap="round" stroke-linejoin="round"/>
<path d="M19.4188 16.5545V18.0441C19.4193 18.2419 19.3808 18.4378 19.3056 18.6207C19.2304 18.8035 19.1199 18.9698 18.9804 19.11C18.8409 19.2502 18.6752 19.3615 18.4927 19.4377C18.3102 19.5138 18.1145 19.5532 17.9167 19.5537H7.80543C7.60768 19.5542 7.41179 19.5156 7.22893 19.4404C7.04607 19.3651 6.87982 19.2545 6.73969 19.115C6.59956 18.9755 6.48828 18.8097 6.41222 18.6272C6.33615 18.4446 6.29677 18.2489 6.29635 18.0511V7.90411C6.29592 7.70636 6.33445 7.51046 6.40973 7.3276C6.48501 7.14474 6.59557 6.9785 6.7351 6.83837C6.87463 6.69824 7.04039 6.58696 7.22292 6.51089C7.40545 6.43482 7.60118 6.39545 7.79893 6.39502H17.9091C18.3084 6.3943 18.6916 6.55219 18.9745 6.83396C19.2574 7.11574 19.4168 7.49833 19.4177 7.89761V9.25394M0.785431 8.97173L3.70772 6.83106L4.10043 10.4321" stroke="black" stroke-linecap="round" stroke-linejoin="round"/>
</svg>
