<svg width="24" height="24" viewBox="0 0 24 24" fill="none" xmlns="http://www.w3.org/2000/svg">
<path d="M20.25 10.5C20.4375 10.5 20.6211 10.5312 20.8008 10.5938C20.9805 10.6562 21.1445 10.7383 21.293 10.8398C21.4414 10.9414 21.5703 11.0703 21.6797 11.2266C21.7891 11.3828 21.8828 11.5469 21.9609 11.7188C22 11.8281 22.0781 12.0312 22.1953 12.3281C22.3125 12.625 22.4492 12.9688 22.6055 13.3594C22.7617 13.75 22.918 14.1602 23.0742 14.5898C23.2305 15.0195 23.3789 15.4219 23.5195 15.7969C23.6602 16.1719 23.7734 16.4922 23.8594 16.7578C23.9453 17.0234 23.9922 17.1875 24 17.25C24 17.4609 23.9258 17.6367 23.7773 17.7773C23.6289 17.918 23.4531 17.9922 23.25 18H9.75C9.54688 18 9.37109 17.9297 9.22266 17.7891C9.07422 17.6484 9 17.4688 9 17.25C9 17.1562 9.03125 17.0078 9.09375 16.8047C9.15625 16.6016 9.23438 16.3828 9.32812 16.1484C9.42188 15.9141 9.51172 15.6914 9.59766 15.4805C9.68359 15.2695 9.75 15.1094 9.79688 15H5.25C5.04688 15 4.87109 14.9297 4.72266 14.7891C4.57422 14.6484 4.5 14.4688 4.5 14.25C4.5 14.1562 4.53125 14.0078 4.59375 13.8047C4.65625 13.6016 4.73438 13.3828 4.82812 13.1484C4.92188 12.9141 5.01172 12.6914 5.09766 12.4805C5.18359 12.2695 5.25 12.1094 5.29688 12H0.75C0.546875 12 0.371094 11.9297 0.222656 11.7891C0.0742188 11.6484 0 11.4688 0 11.25C0 11.1875 0.0429688 11.0234 0.128906 10.7578C0.214844 10.4922 0.328125 10.1719 0.46875 9.79688C0.609375 9.42188 0.761719 9.01953 0.925781 8.58984C1.08984 8.16016 1.24609 7.74609 1.39453 7.34766C1.54297 6.94922 1.67578 6.60547 1.79297 6.31641C1.91016 6.02734 1.99219 5.82031 2.03906 5.69531C2.17188 5.34375 2.39453 5.05859 2.70703 4.83984C3.01953 4.62109 3.36719 4.50781 3.75 4.5H11.25C11.4375 4.5 11.6211 4.53125 11.8008 4.59375C11.9805 4.65625 12.1445 4.73828 12.293 4.83984C12.4414 4.94141 12.5703 5.07031 12.6797 5.22656C12.7891 5.38281 12.8828 5.54688 12.9609 5.71875L13.6406 7.5H15.75C15.9375 7.5 16.1211 7.53125 16.3008 7.59375C16.4805 7.65625 16.6445 7.73828 16.793 7.83984C16.9414 7.94141 17.0703 8.07031 17.1797 8.22656C17.2891 8.38281 17.3828 8.54688 17.4609 8.71875L18.1406 10.5H20.25ZM5.85938 10.5L6.53906 8.69531C6.67188 8.34375 6.89453 8.05859 7.20703 7.83984C7.51953 7.62109 7.86719 7.50781 8.25 7.5H12.0352L11.5547 6.22266C11.5391 6.17578 11.5 6.12891 11.4375 6.08203C11.375 6.03516 11.3125 6.00781 11.25 6H3.75C3.69531 6 3.63672 6.02344 3.57422 6.07031C3.51172 6.11719 3.47266 6.16406 3.45703 6.21094L1.82812 10.5H5.85938ZM10.3594 13.5L11.0391 11.6953C11.1719 11.3438 11.3945 11.0586 11.707 10.8398C12.0195 10.6211 12.3672 10.5078 12.75 10.5H16.5352L16.0547 9.22266C16.0391 9.17578 16 9.12891 15.9375 9.08203C15.875 9.03516 15.8125 9.00781 15.75 9H8.25C8.19531 9 8.13672 9.02344 8.07422 9.07031C8.01172 9.11719 7.97266 9.16406 7.95703 9.21094C7.68359 9.92969 7.41406 10.6445 7.14844 11.3555C6.88281 12.0664 6.60938 12.7812 6.32812 13.5H10.3594ZM22.1719 16.5L20.5547 12.2227C20.5391 12.1758 20.5 12.1289 20.4375 12.082C20.375 12.0352 20.3125 12.0078 20.25 12H12.75C12.6953 12 12.6367 12.0234 12.5742 12.0703C12.5117 12.1172 12.4727 12.1641 12.457 12.2109L11.9648 13.5L11.4023 15C11.2148 15.5 11.0234 16 10.8281 16.5H22.1719Z" fill="black"/>
</svg>
