<svg width="24" height="24" viewBox="0 0 24 24" fill="none" xmlns="http://www.w3.org/2000/svg">
<path d="M11.3364 1.3418L10.3433 1.57912L1.55861 3.68109L1.10889 3.78806L1.24075 4.23197L3.80565 12.8584L4.09421 13.8325L4.60398 12.9536L6.32073 9.99464L8.16498 11.0566L8.60443 10.2978L6.37928 9.01753L6.00001 8.79938L5.78176 9.17719L4.35648 11.6367L2.21195 4.42528L9.55375 2.66887L8.13137 5.12255L7.91153 5.50345L8.29243 5.7217L15.5977 9.92578L14.7729 11.3482L15.5333 11.7847L16.5762 9.98583L16.7959 9.60502L16.4151 9.38677L9.10989 5.18264L10.8252 2.22516L11.3364 1.3418ZM10.0122 9.61383L7.31982 14.269L14.5958 18.4643L14.9751 18.6826L14.7553 19.062L12.69 22.6362L22.9467 20.1753L19.9526 10.0751L17.8857 13.6493L17.6674 14.0273L17.288 13.8091L10.0122 9.61378L10.0122 9.61383Z" fill="black"/>
</svg>
