<svg width="24" height="24" viewBox="0 0 24 24" fill="none" xmlns="http://www.w3.org/2000/svg">
<g clip-path="url(#clip0_31_1379)">
<path fill-rule="evenodd" clip-rule="evenodd" d="M0 2.99996C0 2.30246 0 1.95446 0.0765 1.66796C0.178789 1.28677 0.37955 0.939182 0.658633 0.660098C0.937717 0.381015 1.2853 0.180253 1.6665 0.0779648C1.953 0.00146485 2.301 0.00146484 3 0.00146484C3.699 0.00146484 4.0455 0.00146485 4.332 0.0779648C5.109 0.286465 5.715 0.892465 5.922 1.66796C5.9985 1.95446 5.9985 2.30246 5.9985 2.99996C5.9985 3.69746 5.9985 4.04546 5.9235 4.33196C5.82121 4.71316 5.62045 5.06075 5.34137 5.33983C5.06228 5.61891 4.7147 5.81968 4.3335 5.92196C4.0455 5.99847 3.6975 5.99847 3 5.99847C2.3025 5.99847 1.9545 5.99847 1.668 5.92196C1.2868 5.81968 0.939217 5.61891 0.660133 5.33983C0.38105 5.06075 0.180289 4.71316 0.078 4.33196C0 4.04546 0 3.69746 0 2.99996ZM3 4.49996C2.637 4.49996 2.4165 4.49996 2.2485 4.49247C2.18418 4.49059 2.12005 4.48458 2.0565 4.47446C1.92913 4.44044 1.81298 4.37343 1.71976 4.28021C1.62653 4.18699 1.55953 4.07084 1.5255 3.94346C1.527 3.94946 1.515 3.91196 1.5075 3.75146C1.5 3.58346 1.5 3.35996 1.5 2.99996C1.5 2.63996 1.5 2.41646 1.5075 2.24846C1.515 2.08796 1.527 2.05046 1.5255 2.05646C1.55953 1.92909 1.62653 1.81294 1.71976 1.71972C1.81298 1.6265 1.92913 1.55949 2.0565 1.52546C2.0505 1.52696 2.088 1.51496 2.2485 1.50746C2.4165 1.49996 2.6385 1.49996 3 1.49996C3.3615 1.49996 3.5835 1.49996 3.7515 1.50746C3.912 1.51496 3.9495 1.52696 3.9435 1.52546C4.07087 1.55949 4.18702 1.6265 4.28024 1.71972C4.37347 1.81294 4.44047 1.92909 4.4745 2.05646C4.473 2.05046 4.485 2.08796 4.4925 2.24846C4.5 2.41646 4.5 2.63846 4.5 2.99996C4.5 3.36146 4.5 3.58346 4.4925 3.75146C4.49062 3.81578 4.48461 3.87992 4.4745 3.94346C4.44047 4.07084 4.37347 4.18699 4.28024 4.28021C4.18702 4.37343 4.07087 4.44044 3.9435 4.47446C3.9495 4.47297 3.912 4.48496 3.7515 4.49247C3.5835 4.49996 3.3615 4.49996 3 4.49996ZM0 12C0 11.3025 0 10.9545 0.0765 10.668C0.178789 10.2868 0.37955 9.93918 0.658633 9.6601C0.937717 9.38101 1.2853 9.18025 1.6665 9.07796C1.953 9.00146 2.301 9.00146 2.9985 9.00146C3.696 9.00146 4.044 9.00146 4.3305 9.07796C5.1075 9.28646 5.7135 9.89246 5.9205 10.668C5.997 10.9545 5.997 11.3025 5.997 12C5.997 12.6975 5.997 13.0455 5.922 13.332C5.81971 13.7132 5.61895 14.0607 5.33987 14.3398C5.06078 14.6189 4.7132 14.8197 4.332 14.922C4.044 14.9985 3.696 14.9985 2.9985 14.9985C2.301 14.9985 1.953 14.9985 1.6665 14.922C1.2853 14.8197 0.937717 14.6189 0.658633 14.3398C0.37955 14.0607 0.178789 13.7132 0.0765 13.332C0 13.0455 0 12.6975 0 12ZM3 13.5C2.637 13.5 2.4165 13.5 2.2485 13.4925C2.18418 13.4906 2.12005 13.4846 2.0565 13.4745C1.92913 13.4404 1.81298 13.3734 1.71976 13.2802C1.62653 13.187 1.55953 13.0708 1.5255 12.9435C1.527 12.9495 1.515 12.912 1.5075 12.7515C1.5 12.5835 1.5 12.3615 1.5 12C1.5 11.6385 1.5 11.4165 1.5075 11.2485C1.515 11.088 1.527 11.0505 1.5255 11.0565C1.55953 10.9291 1.62653 10.8129 1.71976 10.7197C1.81298 10.6265 1.92913 10.5595 2.0565 10.5255C2.0565 10.5255 2.0985 10.515 2.2485 10.5075C2.4165 10.5 2.6385 10.5 3 10.5C3.3615 10.5 3.5835 10.5 3.7515 10.5075C3.912 10.515 3.9495 10.527 3.9435 10.5255C4.07087 10.5595 4.18702 10.6265 4.28024 10.7197C4.37347 10.8129 4.44047 10.9291 4.4745 11.0565C4.4745 11.0565 4.485 11.0985 4.4925 11.2485C4.5 11.4165 4.5 11.6385 4.5 12C4.5 12.3615 4.5 12.5835 4.4925 12.7515C4.49062 12.8158 4.48461 12.8799 4.4745 12.9435C4.44047 13.0708 4.37347 13.187 4.28024 13.2802C4.18702 13.3734 4.07087 13.4404 3.9435 13.4745C3.9435 13.4745 3.9015 13.485 3.7515 13.4925C3.5835 13.5 3.3615 13.5 3 13.5ZM0.0765 19.65C0 19.9365 0 20.2845 0 20.982C0 21.6795 0 22.029 0.0765 22.314C0.178789 22.6952 0.37955 23.0427 0.658633 23.3218C0.937717 23.6009 1.2853 23.8017 1.6665 23.904C1.953 23.9805 2.301 23.9805 2.9985 23.9805C3.696 23.9805 4.044 23.9805 4.3305 23.904C4.7117 23.8017 5.05928 23.6009 5.33837 23.3218C5.61745 23.0427 5.81821 22.6952 5.9205 22.314C5.997 22.0275 5.997 21.6795 5.997 20.982C5.997 20.2845 5.997 19.935 5.922 19.65C5.81971 19.2688 5.61895 18.9212 5.33987 18.6421C5.06078 18.363 4.7132 18.1623 4.332 18.06C4.044 17.9835 3.696 17.9835 2.9985 17.9835C2.301 17.9835 1.953 17.9835 1.6665 18.06C1.2853 18.1623 0.937717 18.363 0.658633 18.6421C0.37955 18.9212 0.178789 19.2688 0.0765 19.65ZM2.2515 22.47C2.4195 22.4775 2.6415 22.4775 3.003 22.4775C3.3645 22.4775 3.588 22.4775 3.7545 22.47C3.81896 22.4709 3.88333 22.4648 3.9465 22.452C4.07359 22.4177 4.18943 22.3506 4.28238 22.2574C4.37532 22.1642 4.4421 22.0482 4.476 21.921C4.476 21.9165 4.4865 21.87 4.494 21.729C4.5015 21.561 4.5015 21.339 4.5015 20.979C4.5015 20.619 4.5015 20.394 4.494 20.226C4.4865 20.076 4.476 20.034 4.476 20.034C4.44187 19.9071 4.37499 19.7913 4.28206 19.6984C4.18913 19.6055 4.07341 19.5386 3.9465 19.5045C3.9465 19.5045 3.9045 19.494 3.7545 19.488C3.5865 19.4805 3.3645 19.479 3.003 19.479C2.6415 19.479 2.4195 19.479 2.2515 19.488C2.18721 19.4893 2.12308 19.4949 2.0595 19.5045C1.93241 19.5387 1.81657 19.6058 1.72362 19.699C1.63068 19.7922 1.5639 19.9083 1.53 20.0355C1.53 20.0355 1.5195 20.0775 1.512 20.2275C1.5045 20.3955 1.5045 20.6175 1.5045 20.979C1.5045 21.3405 1.5045 21.564 1.512 21.7305C1.5195 21.891 1.5315 21.9285 1.53 21.9225C1.56403 22.0498 1.63103 22.166 1.72426 22.2592C1.81748 22.3524 1.93363 22.4194 2.061 22.4535C2.12455 22.4636 2.18868 22.4696 2.253 22.4715L2.2515 22.47Z" fill="black"/>
<path d="M9.75 3C9.55109 3 9.36032 3.07902 9.21967 3.21967C9.07902 3.36032 9 3.55109 9 3.75C9 3.94891 9.07902 4.13968 9.21967 4.28033C9.36032 4.42098 9.55109 4.5 9.75 4.5H23.25C23.4489 4.5 23.6397 4.42098 23.7803 4.28033C23.921 4.13968 24 3.94891 24 3.75C24 3.55109 23.921 3.36032 23.7803 3.21967C23.6397 3.07902 23.4489 3 23.25 3H9.75ZM9 12.75C9 12.5511 9.07902 12.3603 9.21967 12.2197C9.36032 12.079 9.55109 12 9.75 12H23.25C23.4489 12 23.6397 12.079 23.7803 12.2197C23.921 12.3603 24 12.5511 24 12.75C24 12.9489 23.921 13.1397 23.7803 13.2803C23.6397 13.421 23.4489 13.5 23.25 13.5H9.75C9.55109 13.5 9.36032 13.421 9.21967 13.2803C9.07902 13.1397 9 12.9489 9 12.75ZM9.75 21C9.55109 21 9.36032 21.079 9.21967 21.2197C9.07902 21.3603 9 21.5511 9 21.75C9 21.9489 9.07902 22.1397 9.21967 22.2803C9.36032 22.421 9.55109 22.5 9.75 22.5H23.25C23.4489 22.5 23.6397 22.421 23.7803 22.2803C23.921 22.1397 24 21.9489 24 21.75C24 21.5511 23.921 21.3603 23.7803 21.2197C23.6397 21.079 23.4489 21 23.25 21H9.75Z" fill="black"/>
</g>
<defs>
<clipPath id="clip0_31_1379">
<rect width="24" height="24" fill="white"/>
</clipPath>
</defs>
</svg>
