<svg width="24" height="24" viewBox="0 0 24 24" fill="none" xmlns="http://www.w3.org/2000/svg">
<g clip-path="url(#clip0_31_1369)">
<path d="M12 19.7144V23.143M16.2857 18.0001V21.4287M7.71428 18.0001V21.4287M13.824 5.80985C13.7263 5.53063 13.5441 5.28878 13.3026 5.11795C13.0611 4.94712 12.7724 4.85581 12.4766 4.85671H11.3708C11.0573 4.85783 10.7551 4.97443 10.522 5.18424C10.289 5.39406 10.1414 5.68238 10.1074 5.99412C10.0735 6.30587 10.1556 6.61919 10.3381 6.87423C10.5205 7.12927 10.7906 7.30816 11.0966 7.37671L12.7817 7.747C13.1248 7.82351 13.4278 8.02377 13.6326 8.30951C13.8374 8.59525 13.9297 8.94644 13.892 9.29597C13.8542 9.6455 13.689 9.96886 13.4279 10.2043C13.1668 10.4397 12.8281 10.5707 12.4766 10.5721H11.5234C11.2276 10.573 10.9389 10.4817 10.6974 10.3109C10.4559 10.1401 10.2736 9.89822 10.176 9.619M12 4.85671V3.42871M12 12.0001V10.5721M4.71428 8.143C4.60061 8.143 4.4916 8.09784 4.41123 8.01747C4.33086 7.9371 4.28571 7.82809 4.28571 7.71443C4.28571 7.60076 4.33086 7.49175 4.41123 7.41138C4.4916 7.33101 4.60061 7.28585 4.71428 7.28585C4.82794 7.28585 4.93695 7.33101 5.01732 7.41138C5.0977 7.49175 5.14285 7.60076 5.14285 7.71443C5.14285 7.82809 5.0977 7.9371 5.01732 8.01747C4.93695 8.09784 4.82794 8.143 4.71428 8.143ZM19.2857 8.143C19.172 8.143 19.063 8.09784 18.9827 8.01747C18.9023 7.9371 18.8571 7.82809 18.8571 7.71443C18.8571 7.60076 18.9023 7.49175 18.9827 7.41138C19.063 7.33101 19.172 7.28585 19.2857 7.28585C19.3994 7.28585 19.5084 7.33101 19.5888 7.41138C19.6691 7.49175 19.7143 7.60076 19.7143 7.71443C19.7143 7.82809 19.6691 7.9371 19.5888 8.01747C19.5084 8.09784 19.3994 8.143 19.2857 8.143Z" stroke="black" stroke-width="1.71429" stroke-linecap="round" stroke-linejoin="round"/>
<path d="M21.4286 0.857178H2.57143C2.11678 0.857178 1.68074 1.03779 1.35925 1.35928C1.03776 1.68077 0.857147 2.11681 0.857147 2.57146V12.8572C0.857147 13.3118 1.03776 13.7479 1.35925 14.0694C1.68074 14.3909 2.11678 14.5715 2.57143 14.5715H21.4286C21.8832 14.5715 22.3193 14.3909 22.6408 14.0694C22.9622 13.7479 23.1429 13.3118 23.1429 12.8572V2.57146C23.1429 2.11681 22.9622 1.68077 22.6408 1.35928C22.3193 1.03779 21.8832 0.857178 21.4286 0.857178Z" stroke="black" stroke-width="1.71429" stroke-linecap="round" stroke-linejoin="round"/>
</g>
<defs>
<clipPath id="clip0_31_1369">
<rect width="24" height="24" fill="white"/>
</clipPath>
</defs>
</svg>
